# xmcd
#
# Track frame offsets:
#	150
#	13629
#	25958
#	41652
#	57043
#	72569
#	85788
#	99400
#	114551
#	128581
#	146188
#	164991
#	179809
#	194604
#	214694
#	242367
#
# Disc length: 3246 seconds
#
# Revision: 3
# Processed by: cddbd v1.5.2PL0 Copyright (c) Steve Scherf et al.
# Submitted via: audiograbber 1.83.01
#
DISCID=eb0cac10
DTITLE=Chartbuster Karaoke - CBE4-16
DYEAR=2003
DGENRE=Karaoke
TTITLE0=Larry Gatlin - Statues Without Hearts
TTITLE1=Don Williams - Some Broken Hearts Never Mend
TTITLE2=Charlie Rich - Every Time You Touch Me(I Get High)
TTITLE3=Johnny Paycheck - I'm The Only Hell(My Mamma Ever Raised)
TTITLE4=Kenny Rogers - Daytime Friends
TTITLE5=Patsy Cline - Always
TTITLE6=Mel Tillis - I Got The Hoss
TTITLE7=Merle Haggard - If We're Not Back In Love By Monday
TTITLE8=Oak Ridge Boys - Y'all Come Back Saloon
TTITLE9=Emmylou Harris - Wayfaring Stranger
TTITLE10=Jerry Lee Lewis - Middle Age Crazy
TTITLE11=Merle Haggard - Ramblin Fever
TTITLE12=John Conlee - Lady Lay Down
TTITLE13=Alabama - My Home's In Alabama
TTITLE14=Charlie Daniels Band - In America
TTITLE15=* - 16
EXTD=
EXTT0=
EXTT1=
EXTT2=
EXTT3=
EXTT4=
EXTT5=
EXTT6=
EXTT7=
EXTT8=
EXTT9=
EXTT10=
EXTT11=
EXTT12=
EXTT13=
EXTT14=
EXTT15=
PLAYORDER=
